PathFileType	4	(X/Y/Z)	C:/Users/beibeiliu/ov580/test_trc/User2\sequence.26_training_dense_left.trc
DataRate	CameraRate	NumFrames	NumMarkers	Units	OrigDataRate	OrigDataStartFrame	OrigNumFrames
120	120	7	19	mm	120	1	361
Frame#	Time	ThumbCMC			ThumbMCP			ThumbIP			ThumbTip			IndexMCP			IndexPIP			IndexTip			MiddleMCP			MiddlePIP			MiddleTip			RingMCP			RingPIP			RingTip			PinkyMCP			PinkyPIP			PinkyTip			BackHand1			BackHand2			BackHand3	
		X0	Y0	Z0	X1	Y1	Z1	X2	Y2	Z2	X3	Y3	Z3	X4	Y4	Z4	X5	Y5	Z5	X6	Y6	Z6	X7	Y7	Z7	X8	Y8	Z8	X9	Y9	Z9	X10	Y10	Z10	X11	Y11	Z11	X12	Y12	Z12	X13	Y13	Z13	X14	Y14	Z14	X15	Y15	Z15	X16	Y16	Z16	X17	Y17	Z17	X18	Y18	Z18	
0	0	-128.801	-68.203	100.017	-110.27	-75.2347	78.7634	-86.5165	-77.7974	53.0007	-70.5575	-83.9348	31.9814	-150.704	-63.5332	19.1569	-144.617	-63.1598	-7.31681	-141.748	-60.7887	-39.9995	-176.654	-63.7128	11.5186	-180.001	-64.3171	-19.8751	-184.706	-66.4871	-51.3226	-201.794	-71.7386	18.0637	-208.979	-73.2067	-3.86616	-216.086	-76.2224	-32.24	-225.111	-85.1553	40.2192	-235.109	-88.757	21.0687	-244.909	-85.421	-2.99128	-197.177	-60.4826	70.7544	-196.382	-50.7364	107.425	-162.997	-49.7804	84.3566	
1	0.00833333	-131.017	-69.2659	97.4017	-110.21	-74.1354	77.0221	-92.0266	-79.5195	51.3562	-71.8167	-84.7945	31.7711	-151.923	-63.3745	17.134	-146.993	-62.146	-12.0598	-144.405	-61.9263	-41.7503	-176.807	-63.4417	8.57464	-179.586	-64.156	-17.9246	-185.441	-66.5192	-51.9799	-206.532	-71.6216	20.6892	-208.784	-73.3143	-4.89106	-217.137	-75.7535	-37.8775	-222.071	-85.6246	43.0404	-238.699	-87.7699	16.6986	-248.119	-84.5922	-0.491616	-199.808	-61.8217	74.3794	-196.395	-50.3068	104.042	-162.926	-51.0327	82.1952	
2	0.0166667	-131.326	-69.6351	98.916	-112.373	-75.0336	79.1382	-88.4357	-78.6616	48.4662	-74.6333	-85.2367	35.1011	-147.065	-63.0029	13.4582	-147.474	-63.1515	-10.2756	-140.947	-61.5326	-37.6046	-179.567	-63.3359	11.7066	-180.388	-64.438	-19.4151	-182.717	-65.8708	-50.628	-201.484	-71.0862	21.5773	-210.29	-73.6078	-9.43493	-217.909	-76.4089	-37.0013	-224.378	-84.4811	42.2816	-238.404	-88.2283	18.7819	-247.423	-86.5156	-1.9091	-200.97	-61.2459	73.5789	-195.964	-51.8863	103.744	-164.741	-50.9687	84.8313	
3	0.025	-128.622	-68.6168	93.7801	-112.802	-75.3099	75.7284	-90.1239	-79.2945	50.1052	-73.5102	-85.2597	36.6972	-150.098	-63.5566	13.6307	-143.357	-61.5752	-13.3776	-146.366	-62.3441	-37.0036	-177.409	-63.5936	12.7363	-180.937	-64.4621	-21.655	-185.513	-66.1378	-51.3134	-201.943	-71.0107	18.7505	-211.13	-73.6684	-8.04428	-214.909	-75.6369	-32.6321	-219.826	-85.1484	42.0269	-234.414	-86.5349	17.6065	-247.802	-83.9733	-1.05072	-199.529	-62.7334	70.5836	-200.017	-52.4155	102.796	-163.73	-50.8843	81.4688	
4	0.0333333	-132.858	-69.5156	97.6574	-111.45	-74.2594	74.1667	-87.6641	-78.1364	51.8748	-70.7371	-83.9739	35.5939	-147.8	-62.4782	17.1275	-145.262	-61.7871	-8.45603	-141.732	-60.174	-36.0222	-175.788	-61.453	7.14447	-178.401	-64.0893	-24.0204	-183.02	-64.7218	-49.8588	-206.59	-72.3382	20.3094	-210.419	-72.6972	-9.6377	-217.917	-75.9759	-36.6975	-226.026	-85.4168	41.3621	-232.89	-87.077	18.1156	-247.988	-83.7307	-1.58167	-200.802	-60.8952	71.1087	-194.895	-51.0183	100.852	-164.729	-51.6401	81.5773	
5	0.0416667	-133.004	-69.0556	93.5291	-113.026	-73.7997	75.0592	-90.2992	-77.7367	48.0812	-70.7742	-83.3574	34.3274	-147.59	-62.6914	18.3087	-148.184	-62.24	-12.8236	-142.676	-60.7467	-36.2614	-180.217	-63.1724	8.2356	-179.575	-63.5948	-21.1043	-186.472	-65.4207	-50.8846	-207.599	-72.2661	20.3969	-213.769	-73.3556	-8.71228	-219.123	-75.7372	-33.3383	-224.137	-84.3267	41.0625	-232.75	-87.4133	19.9108	-248.109	-86.1765	-1.49406	-197.793	-60.4735	74.2869	-197.639	-51.9357	103.201	-162.036	-50.9374	82.6289	
6	0.05	-130.901	-67.8206	93.6065	-110.784	-73.0987	74.2657	-91.5912	-79.7152	52.1832	-74.0479	-84.1519	34.4583	-151.645	-62.5095	12.8647	-145.119	-62.356	-8.81284	-145.159	-61.0566	-37.0297	-181.438	-62.7673	7.69147	-179.598	-63.3291	-19.0052	-184.851	-63.7186	-52.9691	-202.843	-71.2364	21.6436	-212.143	-73.0352	-6.21408	-216.49	-73.6068	-37.8419	-226.498	-84.6722	41.3952	-237.418	-86.5905	15.6087	-248.349	-84.2187	-3.14877	-196.76	-62.1119	74.6395	-199.219	-51.4849	104.856	-165.667	-49.2679	83.8023	
